<?xml version="1.0" encoding="utf-8"?>
<!-- Generator: Adobe Illustrator 15.0.0, SVG Export Plug-In . SVG Version: 6.00 Build 0)  -->
<!DOCTYPE svg PUBLIC "-//W3C//DTD SVG 1.1//EN" "http://www.w3.org/Graphics/SVG/1.1/DTD/svg11.dtd">
<svg version="1.1" id="Layer_1" xmlns="http://www.w3.org/2000/svg" xmlns:xlink="http://www.w3.org/1999/xlink" x="0px" y="0px"
	 width="213.761px" height="151.459px" viewBox="0 0 213.761 151.459" enable-background="new 0 0 213.761 151.459"
	 xml:space="preserve">
<path fill="#231F20" d="M18.588,117.765c-0.034-0.078-0.112-0.127-0.197-0.127h-3.607c-0.085,0-0.162,0.049-0.197,0.127
	L0.018,150.746c-0.029,0.065-0.023,0.144,0.017,0.203c0.04,0.062,0.108,0.098,0.18,0.098h3.982c0.085,0,0.163-0.05,0.196-0.128
	l3.832-8.726h16.586l3.925,8.728c0.034,0.077,0.111,0.126,0.196,0.126h4.029c0.072,0,0.14-0.036,0.18-0.098
	c0.04-0.06,0.046-0.138,0.017-0.203L18.588,117.765z M23.4,138.391H9.729l6.836-15.235L23.4,138.391z M54.55,135.884
	c4.694-1.011,7.484-4.354,7.484-9.001c0-5.594-4.184-9.21-10.66-9.21H36.663c-0.119,0-0.215,0.098-0.215,0.216v32.793
	c0,0.119,0.096,0.215,0.215,0.215h3.795c0.119,0,0.215-0.096,0.215-0.215v-14.354h9.23l10.149,14.477
	c0.04,0.059,0.106,0.092,0.176,0.092h4.497c0.08,0,0.154-0.044,0.19-0.116c0.037-0.071,0.032-0.157-0.015-0.222L54.55,135.884z
	 M57.765,127.024c0,3.517-2.354,5.454-6.626,5.454H40.673v-10.909h10.466C55.349,121.569,57.765,123.557,57.765,127.024
	 M92.938,144.304c0.074,0.037,0.121,0.111,0.121,0.194v3.889c0,0.069-0.033,0.135-0.09,0.175c-2.653,1.896-6.1,2.897-9.962,2.897
	c-4.725,0-9.054-1.704-12.191-4.799c-3.183-3.141-4.936-7.535-4.936-12.375c0-4.81,1.746-9.191,4.919-12.339
	c3.142-3.117,7.477-4.835,12.208-4.835c3.615,0,6.642,0.793,9.249,2.422c0.063,0.039,0.101,0.108,0.101,0.183v3.889
	c0,0.08-0.043,0.151-0.113,0.188c-0.07,0.038-0.153,0.034-0.221-0.01c-2.806-1.854-5.572-2.682-8.969-2.682
	c-7.329,0-12.855,5.668-12.855,13.184c0,3.696,1.331,7.063,3.749,9.481c2.387,2.387,5.671,3.702,9.246,3.702
	c3.741,0,6.854-1.026,9.518-3.139C92.776,144.277,92.865,144.269,92.938,144.304 M119.768,132.787
	c2.463-1.217,3.86-3.679,3.86-6.857c0-5.045-3.708-8.179-9.678-8.179H99.614c-0.118,0-0.215,0.096-0.215,0.214v32.794
	c0,0.118,0.097,0.215,0.215,0.215h15.74c6.705,0,11.038-3.67,11.038-9.351C126.393,137.083,123.873,133.756,119.768,132.787
	 M113.295,131.477h-9.671v-9.83h9.671c5.049,0,6.109,2.712,6.109,4.985C119.404,129.756,117.233,131.477,113.295,131.477
	 M103.624,135.279h11.029c4.664,0,7.233,2.07,7.233,5.828c0,3.849-2.569,5.969-7.233,5.969h-11.029V135.279z M155.394,147.001
	c0.118,0,0.214,0.096,0.214,0.214v3.467c0,0.119-0.096,0.215-0.214,0.215h-23.331c-0.119,0-0.215-0.096-0.215-0.215v-32.793
	c0-0.119,0.096-0.216,0.215-0.216h22.628c0.118,0,0.214,0.097,0.214,0.216v3.468c0,0.118-0.096,0.213-0.214,0.213h-18.618v9.597
	h15.197c0.119,0,0.215,0.096,0.215,0.215v3.467c0,0.118-0.096,0.215-0.215,0.215h-15.197v11.938H155.394 M185.078,147.001
	c0.118,0,0.215,0.096,0.215,0.214v3.467c0,0.119-0.097,0.215-0.215,0.215h-23.329c-0.119,0-0.216-0.096-0.216-0.215v-32.793
	c0-0.119,0.097-0.216,0.216-0.216h22.626c0.119,0,0.215,0.097,0.215,0.216v3.468c0,0.118-0.096,0.213-0.215,0.213h-18.617v9.597
	h15.197c0.119,0,0.215,0.096,0.215,0.215v3.467c0,0.118-0.096,0.215-0.215,0.215h-15.197v11.938H185.078 M202.74,131.737
	c5.808,1.748,11.021,3.827,11.021,9.996c0,2.987-1.297,5.495-3.75,7.25c-2.231,1.596-5.335,2.476-8.739,2.476
	c-4.652,0-9.252-1.312-12.306-3.508c-0.055-0.04-0.09-0.105-0.09-0.174v-4.216c0-0.085,0.051-0.162,0.128-0.197
	c0.077-0.033,0.168-0.019,0.231,0.036c2.256,2.022,7.035,4.068,11.802,4.068c5.028,0,8.406-2.286,8.406-5.688
	c0-3.883-3.728-4.938-8.886-6.399c-5.442-1.53-11.071-3.113-11.071-9.482c0-2.533,1.059-4.706,3.062-6.282
	c2.083-1.64,5.066-2.506,8.629-2.506c3.908,0,7.496,0.951,10.374,2.75c0.062,0.039,0.101,0.108,0.101,0.183v3.889
	c0,0.077-0.042,0.149-0.111,0.188c-0.068,0.038-0.151,0.035-0.218-0.007c-1.781-1.124-5.455-3.012-10.052-3.012
	c-4.676,0-7.468,1.829-7.468,4.891c0,3.186,3.379,4.151,7.293,5.269C201.636,131.414,202.187,131.571,202.74,131.737"/>
<path fill="#FFE300" d="M170.729,94.963l-54.451-94.51l-0.08-0.138C116.086,0.12,115.879,0,115.654,0h-10.8
	c-0.225,0-0.432,0.12-0.544,0.314l-54.58,94.648c-0.112,0.194-0.111,0.434,0,0.628s0.319,0.313,0.543,0.313h15.072
	c0.226,0,0.434-0.12,0.545-0.316L78.34,73.806l12.536,21.869c0.112,0.196,0.319,0.315,0.545,0.315h37.618
	c0.225,0,0.433-0.119,0.544-0.315l12.577-21.938l12.494,21.851c0.112,0.196,0.32,0.316,0.545,0.316h14.987
	c0.224,0,0.431-0.119,0.543-0.313S170.842,95.157,170.729,94.963 M99.167,81.883l-7.035-12.274h36.194l-7.034,12.274H99.167z
	 M92.132,55.522l7.035-12.275h22.124l7.035,12.275H92.132z M116.661,29.141h-12.796l6.396-11.192L116.661,29.141z"/>
</svg>
