<?xml version="1.0" encoding="utf-8"?>
<!-- Generator: Adobe Illustrator 15.0.0, SVG Export Plug-In . SVG Version: 6.00 Build 0)  -->
<!DOCTYPE svg PUBLIC "-//W3C//DTD SVG 1.1//EN" "http://www.w3.org/Graphics/SVG/1.1/DTD/svg11.dtd">
<svg version="1.1" id="Layer_1" xmlns="http://www.w3.org/2000/svg" xmlns:xlink="http://www.w3.org/1999/xlink" x="0px" y="0px"
	 width="109.822px" height="175.934px" viewBox="0 0 109.822 175.934" enable-background="new 0 0 109.822 175.934"
	 xml:space="preserve">
<path fill="#221F1F" d="M30.312,145.036c-2.916,3.394-7.761,5.42-12.959,5.42c-4.685,0-8.987-1.705-12.115-4.803
	c-3.178-3.146-4.928-7.543-4.928-12.379c0-4.812,1.748-9.196,4.922-12.345c3.145-3.12,7.481-4.839,12.214-4.839
	c4.154,0,7.584,1.01,10.482,3.088c0.076,0.055,0.121,0.142,0.121,0.234v3.828c0,0.108-0.062,0.208-0.158,0.258
	s-0.214,0.039-0.302-0.025c-2.931-2.13-6.356-3.257-9.909-3.257c-7.485,0-12.918,5.51-12.918,13.104
	c0,3.709,1.312,7.062,3.695,9.438c2.311,2.304,5.469,3.573,8.896,3.573c3.575,0,6.665-1.099,8.718-3.099v-12.386
	c0-0.16,0.129-0.289,0.289-0.289h3.733c0.159,0,0.29,0.129,0.29,0.289v13.999C30.383,144.916,30.357,144.983,30.312,145.036
	 M43.119,149.887c0.04,0.117,0.15,0.196,0.273,0.196h3.36c0.127,0,0.237-0.081,0.276-0.203l8.03-25.578l7.984,25.577
	c0.039,0.123,0.149,0.204,0.276,0.204h3.36c0.123,0,0.233-0.079,0.273-0.196l11.2-32.854c0.029-0.087,0.016-0.186-0.04-0.261
	c-0.054-0.075-0.14-0.121-0.233-0.121h-4.106c-0.126,0-0.236,0.08-0.276,0.198l-8.491,25.837l-8.131-25.973
	c-0.038-0.121-0.149-0.203-0.275-0.203h-3.034c-0.126,0-0.239,0.082-0.276,0.203l-8.086,25.976l-8.583-25.841
	c-0.04-0.118-0.149-0.197-0.274-0.197h-4.2c-0.094,0-0.181,0.046-0.235,0.121s-0.069,0.175-0.038,0.261L43.119,149.887z
	 M108.279,116.651H80.896c-0.16,0-0.29,0.13-0.29,0.29v3.452c0,0.16,0.13,0.29,0.29,0.29h11.442v28.925
	c0,0.158,0.129,0.288,0.289,0.288h3.827c0.158,0,0.287-0.13,0.287-0.288v-28.925h11.537c0.16,0,0.29-0.13,0.29-0.29v-3.452
	C108.569,116.781,108.439,116.651,108.279,116.651 M15.918,171.777c-0.1-0.049-0.217-0.035-0.304,0.033
	c-1.395,1.106-3.025,1.643-4.988,1.643c-3.932,0-6.785-2.896-6.785-6.886c0-3.926,2.885-6.885,6.71-6.885
	c1.783,0,3.234,0.434,4.707,1.406c0.089,0.059,0.201,0.063,0.295,0.014c0.093-0.05,0.15-0.147,0.15-0.253v-2.082
	c0-0.098-0.051-0.191-0.135-0.243c-1.424-0.891-3.073-1.323-5.043-1.323c-2.578,0-4.941,0.938-6.656,2.64
	c-1.73,1.717-2.684,4.105-2.684,6.727c0,5.428,3.928,9.366,9.34,9.366c2.104,0,3.984-0.548,5.435-1.582
	c0.075-0.055,0.12-0.142,0.12-0.235v-2.081C16.08,171.926,16.018,171.824,15.918,171.777 M34.177,157.503h-2.032
	c-0.158,0-0.287,0.129-0.287,0.288v6.936h-9.608v-6.936c0-0.159-0.128-0.288-0.286-0.288h-2.032c-0.158,0-0.287,0.129-0.287,0.288
	v17.555c0,0.158,0.129,0.287,0.287,0.287h2.032c0.158,0,0.286-0.129,0.286-0.287v-8.19h9.608v8.19c0,0.158,0.129,0.287,0.287,0.287
	h2.032c0.158,0,0.286-0.129,0.286-0.287v-17.555C34.463,157.632,34.335,157.503,34.177,157.503 M46.491,157.201
	c5.225,0,9.165,4.027,9.165,9.366c0,5.341-3.94,9.366-9.165,9.366c-5.212,0-9.141-4.025-9.141-9.366
	C37.351,161.229,41.279,157.201,46.491,157.201 M53,166.567c0-3.926-2.799-6.885-6.509-6.885c-3.697,0-6.484,2.959-6.484,6.885
	s2.787,6.886,6.484,6.886C50.201,173.453,53,170.493,53,166.567 M65.259,165.039c-0.297-0.09-0.593-0.173-0.881-0.256
	c-2.344-0.669-3.78-1.155-3.78-2.654c0-1.531,1.431-2.446,3.826-2.446c2.417,0,4.351,0.993,5.289,1.586
	c0.089,0.056,0.201,0.059,0.291,0.008c0.093-0.05,0.149-0.146,0.149-0.252v-2.08c0-0.101-0.051-0.192-0.135-0.243
	c-1.568-0.981-3.521-1.5-5.646-1.5c-3.906,0-6.432,1.915-6.432,4.877c0,3.54,3.079,4.406,6.054,5.243
	c2.958,0.838,4.631,1.401,4.631,3.259c0,1.984-2.174,2.873-4.327,2.873c-2.509,0-5.021-1.073-6.204-2.133
	c-0.084-0.076-0.205-0.095-0.309-0.05c-0.104,0.048-0.17,0.149-0.17,0.263v2.258c0,0.093,0.044,0.179,0.12,0.232
	c1.662,1.196,4.162,1.91,6.688,1.91c1.857,0,3.555-0.482,4.779-1.358c1.359-0.973,2.079-2.362,2.079-4.02
	C71.282,166.853,67.801,165.804,65.259,165.039 M87.246,173.202h-10.17v-6.047h7.963c0.159,0,0.288-0.129,0.288-0.286v-1.856
	c0-0.158-0.129-0.286-0.288-0.286h-7.963v-4.794h9.795c0.158,0,0.286-0.129,0.286-0.287v-1.855c0-0.158-0.128-0.287-0.286-0.287
	H74.758c-0.16,0-0.287,0.129-0.287,0.287v17.556c0,0.158,0.127,0.287,0.287,0.287h12.488c0.158,0,0.287-0.129,0.287-0.287v-1.855
	C87.533,173.331,87.404,173.202,87.246,173.202 M105.631,157.503h-1.981c-0.158,0-0.287,0.129-0.287,0.288v13.181l-10.346-13.357
	c-0.054-0.07-0.139-0.111-0.227-0.111h-1.756c-0.159,0-0.288,0.129-0.288,0.288v17.555c0,0.158,0.129,0.287,0.288,0.287h1.981
	c0.158,0,0.287-0.129,0.287-0.287v-13.229l10.37,13.404c0.054,0.072,0.14,0.112,0.227,0.112h1.731c0.158,0,0.287-0.129,0.287-0.287
	v-17.555C105.918,157.632,105.789,157.503,105.631,157.503"/>
<path fill="#A5CE3B" d="M109.725,47.613L82.642,0.37C82.512,0.142,82.269,0,82.005,0H27.816c-0.263,0-0.506,0.142-0.638,0.37
	L0.098,47.613c-0.13,0.226-0.13,0.503,0,0.73l27.081,47.244c0.132,0.229,0.375,0.369,0.638,0.369h54.188
	c0.264,0,0.507-0.141,0.637-0.369l27.083-47.244C109.854,48.116,109.854,47.839,109.725,47.613 M70.187,74.65H39.636L24.348,47.978
	l15.288-26.671h30.548l15.289,26.671L70.187,74.65z"/>
<polygon fill="#A5CE3B" points="54.668,63.287 70.306,41.863 39.517,41.863 "/>
</svg>
