<?xml version="1.0" encoding="utf-8"?>
<!-- Generator: Adobe Illustrator 15.0.0, SVG Export Plug-In . SVG Version: 6.00 Build 0)  -->
<!DOCTYPE svg PUBLIC "-//W3C//DTD SVG 1.1//EN" "http://www.w3.org/Graphics/SVG/1.1/DTD/svg11.dtd">
<svg version="1.1" id="Layer_1" xmlns="http://www.w3.org/2000/svg" xmlns:xlink="http://www.w3.org/1999/xlink" x="0px" y="0px"
	 width="109.859px" height="150.228px" viewBox="0 0 109.859 150.228" enable-background="new 0 0 109.859 150.228"
	 xml:space="preserve">
<path fill="#010101" d="M0.665,133.468c0-9.768,7.222-16.76,16.713-16.76c4.074,0,7.454,1.019,10.232,3.011v3.796
	c-3.055-2.223-6.528-3.288-10-3.288c-7.454,0-13.103,5.509-13.103,13.288c0,7.916,5.741,13.195,12.779,13.195
	c3.426,0,6.713-1.02,8.936-3.241v-12.408h3.703v13.89c-2.546,2.963-7.083,5.277-12.639,5.277
	C7.932,150.228,0.665,143.329,0.665,133.468 M33.444,146.802c2.638,1.898,7.037,3.426,12.037,3.426
	c6.528,0,12.131-3.286,12.131-9.398c0-6.157-5.51-8.101-10.741-9.677c-4.63-1.388-8.982-2.129-8.982-5.879
	c0-2.639,2.176-5.047,7.592-5.047c3.843,0,7.408,1.344,10.047,3.009v-3.842c-2.593-1.62-6.064-2.686-10.139-2.686
	c-7.269,0-11.343,3.657-11.343,8.473c0,5.925,4.861,7.501,10.787,9.167c5.232,1.482,8.936,2.593,8.936,6.527
	c0,3.704-3.75,5.835-8.519,5.835c-4.862,0-9.584-2.084-11.806-4.075V146.802 M59.318,146.802c2.641,1.898,7.037,3.426,12.038,3.426
	c6.528,0,12.131-3.286,12.131-9.398c0-6.157-5.511-8.101-10.742-9.677c-4.629-1.388-8.981-2.129-8.981-5.879
	c0-2.639,2.177-5.047,7.593-5.047c3.843,0,7.408,1.344,10.048,3.009v-3.842c-2.594-1.62-6.065-2.686-10.141-2.686
	c-7.268,0-11.343,3.657-11.343,8.473c0,5.925,4.861,7.501,10.788,9.167c5.231,1.482,8.936,2.593,8.936,6.527
	c0,3.704-3.75,5.835-8.52,5.835c-4.861,0-9.583-2.084-11.807-4.075V146.802 M85.026,146.802c2.64,1.898,7.038,3.426,12.038,3.426
	c6.527,0,12.13-3.286,12.13-9.398c0-6.157-5.509-8.101-10.74-9.677c-4.63-1.388-8.982-2.129-8.982-5.879
	c0-2.639,2.176-5.047,7.593-5.047c3.844,0,7.407,1.344,10.047,3.009v-3.842c-2.593-1.62-6.064-2.686-10.14-2.686
	c-7.27,0-11.343,3.657-11.343,8.473c0,5.925,4.861,7.501,10.788,9.167c5.231,1.482,8.935,2.593,8.935,6.527
	c0,3.704-3.75,5.835-8.52,5.835c-4.86,0-9.582-2.084-11.806-4.075V146.802"/>
<path fill="#5B4788" d="M109.762,47.629L82.669,0.369C82.539,0.14,82.295,0,82.031,0H27.826c-0.264,0-0.507,0.14-0.638,0.369
	l-27.09,47.26c-0.13,0.226-0.13,0.504,0,0.73l27.09,47.261c0.131,0.228,0.375,0.369,0.638,0.369h54.205
	c0.264,0,0.508-0.142,0.638-0.369l27.093-47.26C109.892,48.133,109.892,47.855,109.762,47.629 M39.649,74.677L24.356,47.994
	l15.292-26.681h30.557l15.295,26.681L70.208,74.677H39.649z"/>
<polygon fill="#5B4788" points="46.475,56.451 38.438,56.451 38.438,49.728 53.145,49.728 53.145,64.919 46.475,64.919 "/>
<polygon fill="#5B4788" points="63.341,64.919 56.672,64.919 56.672,49.728 71.378,49.728 71.378,56.451 63.341,56.451 "/>
<polygon fill="#5B4788" points="63.384,39.539 71.421,39.539 71.421,46.262 56.714,46.262 56.714,31.069 63.384,31.069 "/>
<polygon fill="#5B4788" points="46.475,31.069 53.145,31.069 53.145,46.262 38.438,46.262 38.438,39.539 46.475,39.539 "/>
</svg>
