<?xml version="1.0" encoding="utf-8"?>
<!-- Generator: Adobe Illustrator 15.0.0, SVG Export Plug-In . SVG Version: 6.00 Build 0)  -->
<!DOCTYPE svg PUBLIC "-//W3C//DTD SVG 1.1//EN" "http://www.w3.org/Graphics/SVG/1.1/DTD/svg11.dtd">
<svg version="1.1" id="Layer_1" xmlns="http://www.w3.org/2000/svg" xmlns:xlink="http://www.w3.org/1999/xlink" x="0px" y="0px"
	 width="151.076px" height="150.122px" viewBox="0 0 151.076 150.122" enable-background="new 0 0 151.076 150.122"
	 xml:space="preserve">
<path fill="#EB2227" d="M133.166,47.626L106.075,0.37c-0.13-0.229-0.374-0.37-0.637-0.37H51.236c-0.264,0-0.506,0.141-0.638,0.37
	L23.509,47.626c-0.13,0.226-0.13,0.504,0,0.731l27.089,47.256c0.131,0.229,0.374,0.37,0.638,0.37h54.203
	c0.263,0,0.507-0.142,0.637-0.37l27.091-47.255C133.296,48.13,133.296,47.852,133.166,47.626 M93.616,74.671H63.059L47.767,47.992
	l15.292-26.68h30.556l15.293,26.68L93.616,74.671z"/>
<polygon fill="#EB2227" points="69.359,32.334 60.383,47.992 69.359,63.649 87.317,63.649 96.293,47.992 87.317,32.334 "/>
<path fill="#231F20" d="M17.812,117.141c0.146,0,0.263,0.118,0.263,0.264v22.107c0,6.843-3.721,10.61-10.474,10.61
	c-2.951,0-5.61-0.729-7.49-2.053C0.04,148.02,0,147.939,0,147.854v-3.829c0-0.104,0.061-0.198,0.155-0.239
	c0.095-0.042,0.205-0.025,0.282,0.043c1.618,1.442,4.042,2.304,6.481,2.304c4.799,0,6.94-2.239,6.94-7.259v-21.47
	c0-0.146,0.118-0.264,0.263-0.264H17.812 M49.7,117.141h-3.692c-0.146,0-0.263,0.118-0.263,0.264v18.416
	c0,6.457-3.429,10.312-9.173,10.312c-5.715,0-9.128-3.855-9.128-10.312v-18.416c0-0.146-0.118-0.264-0.263-0.264h-3.691
	c-0.146,0-0.263,0.118-0.263,0.264v18.324c0,8.879,5.114,14.394,13.346,14.394c8.259,0,13.391-5.515,13.391-14.394v-18.324
	C49.962,117.259,49.845,117.141,49.7,117.141 M63.27,131.993l15.298-14.398c0.078-0.074,0.104-0.188,0.064-0.288
	c-0.04-0.1-0.137-0.166-0.245-0.166h-4.876c-0.069,0-0.133,0.027-0.182,0.073l-13.961,13.254v-13.063
	c0-0.146-0.118-0.264-0.264-0.264h-3.692c-0.145,0-0.262,0.118-0.262,0.264v31.908c0,0.146,0.118,0.263,0.262,0.263h3.692
	c0.146,0,0.264-0.117,0.264-0.263v-15.382l16.147,15.571c0.048,0.047,0.114,0.073,0.183,0.073h5.105
	c0.106,0,0.203-0.064,0.243-0.163c0.039-0.1,0.016-0.214-0.062-0.287L63.27,131.993z M89.118,117.141h-3.693
	c-0.145,0-0.262,0.118-0.262,0.264v31.908c0,0.146,0.117,0.263,0.262,0.263h3.693c0.146,0,0.262-0.117,0.262-0.263v-31.908
	C89.38,117.259,89.264,117.141,89.118,117.141 M118.85,120.776v-3.372c0-0.146-0.117-0.264-0.263-0.264H92.968
	c-0.145,0-0.263,0.118-0.263,0.264v3.372c0,0.146,0.118,0.263,0.263,0.263H103.6v28.273c0,0.146,0.117,0.263,0.263,0.263h3.738
	c0.146,0,0.262-0.117,0.262-0.263v-28.273h10.725C118.732,121.039,118.85,120.922,118.85,120.776 M134.679,116.595
	c9.348,0,16.397,7.206,16.397,16.764s-7.05,16.764-16.397,16.764c-9.324,0-16.354-7.206-16.354-16.764
	S125.354,116.595,134.679,116.595 M146.768,133.358c0-7.282-5.196-12.774-12.089-12.774c-3.277,0-6.312,1.291-8.546,3.633
	c-2.257,2.369-3.501,5.614-3.501,9.142s1.244,6.773,3.501,9.141c2.234,2.344,5.269,3.634,8.546,3.634
	C141.571,146.133,146.768,140.641,146.768,133.358"/>
</svg>
