<?xml version="1.0" encoding="utf-8"?>
<!-- Generator: Adobe Illustrator 16.0.0, SVG Export Plug-In . SVG Version: 6.00 Build 0)  -->
<!DOCTYPE svg PUBLIC "-//W3C//DTD SVG 1.1//EN" "http://www.w3.org/Graphics/SVG/1.1/DTD/svg11.dtd">
<svg version="1.1" id="Layer_1" xmlns="http://www.w3.org/2000/svg" xmlns:xlink="http://www.w3.org/1999/xlink" x="0px" y="0px"
	 width="651.152px" height="372.153px" viewBox="0 0 651.152 372.153" enable-background="new 0 0 651.152 372.153"
	 xml:space="preserve">
<path fill="#FFE300" d="M560.829,368.168L349.722,1.754l-0.308-0.535C348.98,0.464,348.176,0,347.306,0h-41.874
	c-0.87,0-1.673,0.464-2.107,1.217L91.722,368.167c-0.434,0.752-0.433,1.68,0.001,2.432s1.237,1.216,2.106,1.216h58.437
	c0.872,0,1.678-0.468,2.111-1.226l48.26-84.447l48.603,84.788c0.434,0.756,1.239,1.223,2.111,1.223h145.845
	c0.871,0,1.677-0.467,2.109-1.223l48.762-85.058l48.44,84.718c0.434,0.757,1.239,1.225,2.111,1.225h58.103
	c0.868,0,1.671-0.464,2.105-1.216C561.263,369.847,561.263,368.92,560.829,368.168 M283.385,317.459l-27.276-47.589h140.329
	l-27.275,47.589H283.385z M256.108,215.257l27.277-47.59h85.772l27.279,47.59H256.108z M351.206,112.976h-49.607l24.797-43.39
	L351.206,112.976z"/>
<path d="M645.566,111.284c-0.104-0.05-0.21-0.098-0.316-0.142c-1.229-0.509-2.519-0.768-3.835-0.768
	c-4.055,0-7.692,2.457-9.24,6.189l-3.271,7.636c-0.503,1.017-1.003,2.05-1.505,3.087c-1.55,3.202-3.151,6.513-4.903,9.387
	c-0.021,0.033-0.041,0.068-0.062,0.102c-4.332,7.399-8.633,13.257-13.145,17.898c-3.095,2.705-7.138,5.834-11.296,6.575
	c-0.229,0.041-0.454,0.093-0.678,0.158c-0.768,0.224-1.884,0.122-2.932-0.264c-1.284-1.079-2.326-3.577-2.822-4.834
	c-0.882-3.148-1.383-6.526-1.496-10.075l1.759-1.022c2.21-1.284,4.493-2.611,6.802-4.314c7.561-5.085,13.8-10.348,19.069-16.086
	c0.088-0.096,0.173-0.195,0.255-0.295c14.183-17.392,12.074-29.295,7.81-36.218c-0.06-0.095-0.121-0.189-0.186-0.282
	c-3.431-4.983-8.876-7.728-15.334-7.728c-3.894,0-7.988,0.993-11.938,2.918c-6.078,3.082-11.502,8.584-16.093,16.303
	c-6.367,10.5-10.462,23.032-11.817,35.71l-12.272,25.444l-0.875,1.705c-2.522,4.925-4.926,9.621-7.923,13.525
	c0.184-4.969,1.64-10.285,3.056-15.455c0.457-1.67,0.909-3.321,1.299-4.87c0.432-1.631,0.904-3.238,1.376-4.845
	c0.987-3.362,2.007-6.838,2.713-10.594c0.88-3.554,1.815-8.924,1.409-14.685c-0.009-0.129-0.021-0.257-0.039-0.385
	c-0.981-7.599-6.41-13.019-13.534-13.54c-0.568-0.058-1.148-0.087-1.729-0.087c-1.659,0-3.193,0.234-4.621,0.567
	c0.179-1.201,0.253-2.53,0.05-3.979c-0.015-0.112-0.034-0.225-0.056-0.337c-0.909-4.708-5.059-8.124-9.865-8.124
	c-3.997,0-7.552,2.364-9.129,6.046l-2.829,5.981c-0.034,0.072-0.067,0.145-0.099,0.218l-5.915,13.767
	c-3.512,7.632-7.143,15.521-11.037,23.012c-0.138,0.245-0.314,0.538-0.51,0.866c-1.211,2.025-2.894,4.857-3.595,7.941l-3.762,7.208
	c-0.025,0.048-0.049,0.095-0.073,0.144c-1.624,3.306-3.839,6.664-6.409,9.717c-0.363,0.405-0.727,0.787-1.094,1.147
	c1.383-5.328,2.434-11.295,2.635-17.507c0.759-12.687-2.901-24.365-9.808-31.275c-3.438-3.568-7.94-5.532-12.691-5.532
	c-5.817,0-11.427,2.872-15.348,7.83c-0.561,0.694-1.077,1.412-1.553,2.147c-2.114-1.562-4.89-2.287-7.731-1.889
	c-0.311,0.044-0.62,0.109-0.922,0.196c-3.34,0.966-5.361,3.623-6.698,5.382c-0.226,0.297-0.536,0.703-0.656,0.835
	c-0.221,0.237-0.423,0.489-0.606,0.755c-2.494,3.616-4.959,7.607-7.127,11.54c-0.03,0.054-0.061,0.11-0.088,0.165
	c-5.104,9.908-8.371,20.388-9.648,30.631c-0.091,0.175-0.198,0.339-0.278,0.521l-4.891,11.05c-0.017,0.038-0.032,0.076-0.048,0.114
	c-0.462,1.098-0.921,2.201-1.376,3.302c-3.279,7.905-6.377,15.372-11.227,21.413c-0.043,0.053-0.084,0.106-0.124,0.16
	c-2.204,2.923-5.612,5.291-7.104,5.4c-0.037-0.036-0.085-0.089-0.145-0.16c-0.055-0.067-0.11-0.135-0.168-0.2
	c-2.229-2.536-2.85-7.885-3.349-12.184l-0.047-0.398c-0.917-8.744-0.729-17.571-0.457-24.302l0.93-13.763l0.54-6.506
	c0.054-0.44,0.08-0.929,0.115-1.667l22.817-6.592c3.429-0.99,6.15-3.73,7.106-7.152c0.901-3.225,0.102-6.625-2.137-9.125
	c-1.83-2.105-4.464-3.262-7.436-3.262c-2.542,0-4.874,0.827-6.577,1.432c-0.385,0.136-0.741,0.268-1.058,0.358l-10.447,3.019
	c0.528-5.278,1.067-9.926,1.669-14.414c0.012-0.085,0.021-0.169,0.029-0.254l1.152-12.119c0.025-0.26,0.08-0.562,0.134-0.888
	c0.345-2.113,0.862-5.276-0.488-8.327c-1.524-3.718-5.036-6.106-9.017-6.106c-5.179,0-9.467,3.841-9.972,8.887
	c-1.319,12.167-2.685,24.749-5.015,36.659c-0.013,0.066-0.025,0.131-0.036,0.197l-0.448,2.718l-11.182,3.23l-0.466,0.128
	c-1.855,0.501-7.462,2.012-8.348,8.295c-0.473,2.865,0.288,5.741,2.102,7.918c1.893,2.274,4.726,3.578,7.774,3.578
	c1.012,0,2.025-0.145,3.017-0.43l1.662-0.48c-2.263,7.794-5.095,16.116-8.759,25.796c-0.214,0.468-0.454,0.994-0.691,1.568
	c-0.363,0.584-0.681,1.21-0.936,1.884c-0.027,0.073-0.055,0.146-0.08,0.221c-2.416,7.136-5.85,14.321-10.233,21.404
	c-2.336,3.846-4.736,7.286-7.227,10.348c-0.631-4.038-1.633-7.958-2.688-11.619c-1.283-4.984-2.943-9.896-4.548-14.646
	c-1.594-4.713-3.1-9.166-4.257-13.657c-0.772-3.622-1.489-7.039-1.175-9.787c0.009-0.079,0.016-0.159,0.022-0.239
	c0.076-0.153,0.181-0.356,0.265-0.517c0.575-1.104,1.442-2.769,1.73-4.983c0.39-2.812-0.443-5.646-2.293-7.786
	c-1.949-2.255-4.782-3.549-7.772-3.549c-3.815,0-7.24,2.177-8.94,5.683c-0.023,0.048-0.046,0.096-0.068,0.144l-2.283,5.012
	c-1.911,4.196-3.782,8.415-5.651,12.633c-3.612,8.147-7.345,16.57-11.309,24.621c-0.142,0.249-0.315,0.531-0.5,0.84
	c-1.123,1.858-2.719,4.504-3.304,7.466l-2.379,5.558c-0.509,1.027-1.012,2.068-1.519,3.114c-1.545,3.193-3.143,6.496-4.891,9.36
	c-0.021,0.034-0.041,0.068-0.061,0.103c-4.337,7.404-8.638,13.262-13.144,17.897c-3.095,2.705-7.137,5.834-11.296,6.575
	c-0.229,0.041-0.455,0.093-0.678,0.158c-0.768,0.222-1.885,0.121-2.932-0.264c-1.285-1.08-2.327-3.577-2.822-4.834
	c-0.882-3.146-1.383-6.524-1.496-10.075l1.775-1.031c2.206-1.282,4.487-2.607,6.786-4.305c7.565-5.088,13.803-10.351,19.069-16.087
	c0.088-0.097,0.173-0.194,0.254-0.294c14.181-17.392,12.075-29.294,7.811-36.215c-0.059-0.098-0.121-0.191-0.184-0.284
	c-3.432-4.984-8.878-7.729-15.336-7.729c-3.892,0-7.988,0.993-11.939,2.919c-6.079,3.083-11.503,8.584-16.09,16.302
	c-6.487,10.693-10.611,23.493-11.887,36.41l-2.542,5.937c-0.507,1.024-1.01,2.064-1.516,3.109c-1.546,3.195-3.145,6.497-4.893,9.363
	c-0.021,0.034-0.041,0.068-0.061,0.102c-4.336,7.405-8.637,13.264-13.144,17.899c-3.095,2.705-7.137,5.834-11.296,6.575
	c-0.229,0.041-0.455,0.093-0.678,0.158c-0.768,0.223-1.885,0.12-2.931-0.265c-1.286-1.08-2.327-3.577-2.822-4.834
	c-0.882-3.146-1.384-6.524-1.497-10.075l1.76-1.022c2.211-1.284,4.495-2.611,6.8-4.313c7.565-5.087,13.804-10.35,19.07-16.087
	c0.088-0.095,0.173-0.193,0.255-0.294c14.182-17.392,12.074-29.295,7.809-36.218c-0.059-0.095-0.12-0.19-0.184-0.282
	c-3.431-4.982-8.877-7.728-15.335-7.728c-3.894,0-7.989,0.993-11.938,2.918c-6.08,3.083-11.505,8.585-16.091,16.303
	c-5.826,9.605-9.748,20.91-11.412,32.472c-2.187-9.35-6.392-17.516-12.212-23.503c-5.017-5.163-11.586-8.744-18.758-10.353
	c8.002-12.21,12.714-25.882,13.494-39.539c0.798-16.843-4.565-37.027-21.986-43.328c-3.063-1.309-6.166-1.937-9.282-1.882
	c-0.59-0.03-1.173-0.045-1.754-0.045c-13.491,0-26.188,8.177-36.702,23.627c-2.465,3.592-4.708,7.358-6.762,11.226
	c-0.815-3.375-2.411-6.676-5.366-9.543c-3.832-3.719-9.126-5.685-15.311-5.685c-3.352,0-6.992,0.56-10.817,1.665
	c-0.076,0.022-0.152,0.045-0.227,0.07c-8.769,2.876-17.263,8.294-23.926,15.261c-3.667,3.645-6.362,7.507-8.011,11.477
	c-0.026,0.065-0.052,0.13-0.077,0.195c-2.235,5.898-3.592,13.721,2.374,17.891c1.591,1.258,3.588,1.944,5.698,1.943
	c3.143,0,6.233-1.508,8.064-3.935c0.041-0.056,0.082-0.111,0.122-0.169c1.793-2.537,1.936-5.047,2.022-6.546
	c0.012-0.216,0.013-0.435,0.025-0.549c0.486-1.83,1.826-3.968,3.878-6.184c5.974-6.188,13.437-10.349,19.999-11.152
	c0.228-0.016,0.461-0.026,0.696-0.026c0.711,0,1.194,0.088,1.463,0.163c0.428,1.171,0.282,3.14,0.089,5.08
	c-0.008,0.079-0.014,0.158-0.019,0.238c-0.578,9.096-1.658,18.571-2.703,27.733c-0.36,3.148-0.719,6.297-1.06,9.438
	c-0.807,7.413-1.663,14.84-2.522,22.292c-1.204,10.441-2.449,21.237-3.551,31.972c-2.366,18.716-4.477,37.639-6.523,55.969
	l-1.16,9.972c-0.019,0.165-0.032,0.329-0.039,0.494c-0.051,1.251-0.122,2.963,0.427,4.865c0.111,0.385,0.256,0.758,0.434,1.116
	c1.709,3.437,5.138,5.571,8.948,5.571c5.076,0,9.302-3.709,10.049-8.818c0.011-0.072,0.02-0.144,0.028-0.216L51,316.653
	l3.274-29.506c1.349-11.451,3.288-23.67,5.768-36.343c4.064-21.172,8.428-37.952,13.695-52.714
	c4.994-13.341,10.816-27.042,19.588-36.957c3.821-4.45,10.047-9.204,16.061-9.204c1.588,0,3.062,0.332,4.503,1.013
	c5.347,2.817,7.022,10.045,7.495,13.033c0.011,0.074,0.024,0.147,0.038,0.221c1.059,5.486,0.923,11.47-0.391,17.304
	c-0.012,0.05-0.022,0.098-0.032,0.148c-2.73,13.539-10.789,26.942-22.735,37.776c-0.628,0.58-1.905,1.188-3.032,1.726l-0.368,0.176
	c-0.202,0.096-0.4,0.203-0.592,0.32l-5.883,3.588c-2.073,1.298-3.928,2.795-5.73,4.268c-2.397,1.528-5.22,3.607-6.916,6.444
	c-2.396,3.604-1.914,8.551,1.231,11.962c0.116,0.126,0.236,0.247,0.36,0.363c1.82,1.69,4.217,2.623,6.751,2.623
	c1.755,0,3.547-0.442,5.187-1.279c4.986-2.45,9.394-5.364,13.663-8.186c0.158-0.104,0.311-0.216,0.46-0.334l5.651-4.474
	c0.707-0.579,2.375-1.06,3.989-1.525c2.793-0.808,6.016-1.224,9.266-1.172c4.593,0.361,9.016,2.938,12.48,7.273
	c6.796,9.297,8.475,23.352,4.275,35.846c-0.017,0.048-0.032,0.098-0.047,0.145c-3.665,11.784-13.879,21.772-28.025,27.405
	c-0.048,0.021-0.096,0.039-0.144,0.061c-8.005,3.408-16.464,5.285-23.819,5.285c-3.274,0-6.368-0.361-9.197-1.075
	c-0.139-0.034-0.279-0.065-0.419-0.09c-0.511-0.096-1.016-0.236-1.554-0.439c0.801-3.436-0.03-6.404-2.484-8.854
	c-1.905-1.988-4.539-3.123-7.258-3.123c-2.597,0-5.09,1.039-6.884,2.858c-3.089,2.977-4.2,7.553-4.205,10.912
	c-0.055,4.134,1.506,10.038,9.191,14.819c0.097,0.062,0.197,0.12,0.299,0.176c5.659,3.125,12.254,4.024,16.841,4.223
	c6.492,0.526,13.397,0.07,21.164-1.391c0.037-0.007,0.074-0.014,0.111-0.021c17.107-3.522,32.403-11.821,43.127-23.431
	c7.532-8.367,12.437-18.362,14.483-29.133c1.155,5.062,3.162,10.237,6.823,14.662c4.57,5.379,11.143,8.342,18.508,8.342
	c1.334,0,2.702-0.098,4.067-0.288c0.064-0.01,0.128-0.019,0.191-0.03c16.282-2.764,27.275-16.727,34.127-26.988
	c0.022-0.034,0.045-0.067,0.066-0.102c0.508-0.792,1.01-1.594,1.509-2.402c0.774,1.313,1.645,2.592,2.652,3.81
	c4.569,5.38,11.142,8.343,18.507,8.343c1.334,0,2.703-0.096,4.069-0.287c0.063-0.01,0.127-0.02,0.19-0.029
	c12.549-2.129,21.955-10.913,28.746-19.527c7.625,3.649,15.343,5.521,22.974,5.521c1.077,0,2.163-0.038,3.141-0.107
	c22.855-1.304,39.035-18.899,46.67-29.317c4.954-6.487,9.335-13.966,13.39-22.856c0.277-0.574,0.535-1.138,0.786-1.699
	c0.793,4.932,2.081,9.333,3.919,13.335c3.827,8.177,10.533,12.865,18.401,12.865c0.187,0,0.376-0.002,0.564-0.008l0.198,0.002
	c8.922,0,17.57-5.289,24.319-14.845c2.592-3.604,4.734-7.383,6.641-11.222c1.02,1.567,2.146,3.009,3.385,4.301
	c4.52,4.614,10.611,7.154,17.155,7.154c4.552,0,9.224-1.216,13.506-3.514c0.035-0.018,0.071-0.038,0.105-0.057
	c7.888-4.416,14.725-11.987,20.331-22.507h0.021c1.99,0,3.831-0.216,5.455-0.405c4.046-0.473,8.014-1.963,12.483-4.69
	c0.074-0.046,0.146-0.092,0.219-0.14c6.098-4.056,10.438-10.023,13.877-15.325c0.086-0.133,0.167-0.268,0.243-0.406l5.51-9.988
	c0.082-0.149,0.158-0.3,0.229-0.455c0.117-0.257,0.261-0.542,0.413-0.847c0.597-1.197,1.381-2.781,1.879-4.593l3.753-7.234
	c0.036-0.07,0.071-0.14,0.105-0.211c0.923-1.946,1.858-3.895,2.798-5.852c2.538-5.288,5.137-10.704,7.588-16.253
	c0.98,0.191,2.045,0.298,3.201,0.298c1.592,0,3.282-0.197,5.316-0.618c0.167-0.035,0.334-0.076,0.499-0.124
	c0.056-0.016,0.115-0.034,0.182-0.055c-0.096,0.507-0.187,0.961-0.258,1.313c-0.1,0.5-0.196,0.979-0.28,1.43
	c-0.802,3.388-1.661,6.503-2.571,9.799c-0.452,1.64-0.904,3.28-1.348,4.95c-0.236,0.819-0.479,1.644-0.722,2.474
	c-2.579,8.807-5.503,18.788-4.223,28.869c0.007,0.055,0.015,0.11,0.023,0.165c1.288,8.436,7.875,17.401,17.548,17.4
	c2.076,0,4.164-0.424,6.233-1.27c6.604-2.728,10.81-8.521,14.565-14.242c2.968-4.56,5.604-9.354,7.964-14.02
	c0.707,1.153,1.49,2.278,2.381,3.354c4.569,5.379,11.143,8.342,18.508,8.342c1.334,0,2.703-0.098,4.068-0.288
	c0.062-0.01,0.127-0.019,0.189-0.03c16.281-2.762,27.275-16.726,34.127-26.989c0.022-0.034,0.044-0.067,0.066-0.101
	c3.21-4.999,6.195-10.264,9.395-16.568c0.024-0.048,0.049-0.096,0.071-0.145l4.649-9.738c0.101-0.211,0.19-0.429,0.269-0.65
	l0.233-0.636C651.726,121.356,652.516,114.601,645.566,111.284z M597.628,112.598c3.255-6.365,6.594-10.25,9.924-11.548
	c0.087-0.034,0.173-0.069,0.258-0.107c0.312-0.136,0.604-0.246,0.873-0.333c-0.236,1.204-0.768,2.58-1.566,4.027
	c-0.034,0.064-0.069,0.129-0.103,0.195c-2.398,4.711-6.364,9.302-11.998,13.865C595.797,116.601,596.666,114.572,597.628,112.598z
	 M247.545,213.731c3.255-6.364,6.595-10.25,9.927-11.549c0.086-0.034,0.171-0.069,0.256-0.106c0.31-0.136,0.603-0.247,0.873-0.334
	c-0.236,1.204-0.768,2.58-1.565,4.026c-0.036,0.064-0.071,0.13-0.104,0.195c-2.398,4.711-6.363,9.304-11.998,13.865
	C245.714,217.734,246.583,215.704,247.545,213.731z M186.424,231.386c3.256-6.364,6.596-10.249,9.926-11.548
	c0.087-0.034,0.172-0.069,0.257-0.105c0.31-0.137,0.603-0.247,0.873-0.334c-0.236,1.203-0.768,2.579-1.565,4.026
	c-0.036,0.064-0.071,0.129-0.104,0.195c-2.398,4.712-6.363,9.303-11.998,13.866C184.593,235.39,185.461,233.361,186.424,231.386z
	 M314.409,239.971c-0.146,2.497-0.928,5.797-3.801,7.481c-0.841,0.336-2.614,0.544-3.304,0.624c-0.051,0.006-0.102,0.014-0.152,0.02
	c-1.835,0.258-3.394,0.452-4.698,0.292c-0.234-0.029-0.47-0.045-0.706-0.05c-3.085-0.053-6.652-0.76-10.045-1.989
	c-0.085-0.03-0.17-0.06-0.255-0.086c-0.25-0.079-0.506-0.174-0.761-0.265c1.267-2.283,2.54-4.682,3.848-7.259
	c0.024-0.048,0.047-0.095,0.07-0.144l4.65-9.737c0.102-0.213,0.193-0.432,0.271-0.654l0.233-0.637
	c0.373-1.006,0.699-2.078,0.935-3.176l2.542-4.918c0.019-0.036,0.037-0.073,0.055-0.108c1.52-3.078,3.011-6.162,4.484-9.278
	c0.04,0.116,0.08,0.233,0.121,0.352c1.26,3.678,2.451,7.151,3.459,10.641C313.052,226.958,314.829,233.745,314.409,239.971z
	 M443.434,205.613c-0.725,0.322-1.397,0.486-1.996,0.486c-2.569,0-4.813-3.246-5.827-6.305c-1.497-4.422-1.858-9.469-1.172-16.367
	c0.008-0.077,0.014-0.155,0.021-0.231c0.401-6.248,1.968-12.625,5.075-20.662c0.864-2.006,1.846-3.966,2.935-5.863
	c0.185,20.536,7.439,31.163,13.571,36.481C452.961,198.202,448.743,203.307,443.434,205.613z M465.655,169.5
	c-0.015,0.055-0.029,0.112-0.043,0.168c-0.173,0.709-0.354,1.418-0.549,2.133c-1.385-3.371-2.007-6.928-2.27-8.963
	c-0.768-5.925-1.015-14.267,2.135-20.441c0.256,0.506,0.555,1.164,0.897,2.021C468.447,151.19,468.391,159.393,465.655,169.5z"/>
</svg>
