<?xml version="1.0" encoding="utf-8"?>
<!-- Generator: Adobe Illustrator 15.0.0, SVG Export Plug-In . SVG Version: 6.00 Build 0)  -->
<!DOCTYPE svg PUBLIC "-//W3C//DTD SVG 1.1//EN" "http://www.w3.org/Graphics/SVG/1.1/DTD/svg11.dtd">
<svg version="1.1" id="Layer_1" xmlns="http://www.w3.org/2000/svg" xmlns:xlink="http://www.w3.org/1999/xlink" x="0px" y="0px"
	 width="2265.02px" height="2270.31px" viewBox="0 0 2265.02 2270.31" enable-background="new 0 0 2265.02 2270.31"
	 xml:space="preserve">
<g>
	<path fill="#FFE300" d="M261.612,6.375L472.719,372.79l0.308,0.535c0.434,0.755,1.238,1.22,2.109,1.22h41.873
		c0.87,0,1.673-0.464,2.107-1.217L730.719,6.376c0.434-0.752,0.433-1.68-0.001-2.432c-0.434-0.751-1.237-1.215-2.106-1.215h-58.437
		c-0.872,0-1.678,0.467-2.111,1.225l-48.26,84.447L571.201,3.614c-0.434-0.756-1.239-1.222-2.11-1.222H423.245
		c-0.871,0-1.677,0.466-2.11,1.222l-48.761,85.058L323.933,3.954c-0.433-0.757-1.239-1.224-2.111-1.224h-58.103
		c-0.868,0-1.671,0.463-2.105,1.215C261.178,4.697,261.178,5.624,261.612,6.375 M539.056,57.084l27.276,47.589H426.004
		l27.275-47.589H539.056z M566.333,159.287l-27.277,47.59h-85.772l-27.279-47.59H566.333z M471.235,261.569h49.607l-24.797,43.39
		L471.235,261.569z"/>
	<path fill="#FFE300" d="M902.39,446.179l211.107,366.414l0.308,0.535c0.434,0.755,1.238,1.22,2.109,1.22h41.873
		c0.87,0,1.673-0.464,2.107-1.217l211.603-366.951c0.434-0.752,0.434-1.68-0.001-2.432c-0.434-0.752-1.237-1.215-2.106-1.215
		h-58.437c-0.872,0-1.678,0.467-2.111,1.225l-48.26,84.447l-48.604-84.788c-0.434-0.756-1.238-1.222-2.109-1.222h-145.846
		c-0.871,0-1.677,0.466-2.11,1.222l-48.761,85.058l-48.441-84.718c-0.433-0.757-1.239-1.224-2.111-1.224h-58.103
		c-0.868,0-1.671,0.463-2.105,1.215C901.957,444.5,901.956,445.427,902.39,446.179 M1179.834,496.888l27.276,47.589h-140.328
		l27.275-47.589H1179.834z M1207.111,599.09l-27.277,47.59h-85.772l-27.279-47.59H1207.111z M1112.013,701.372h49.607l-24.797,43.39
		L1112.013,701.372z"/>
	<path fill="#FFE300" d="M214.627,1.206L0.648,365.949l-0.313,0.532c-0.441,0.75-0.447,1.68-0.017,2.437l20.717,36.39
		c0.43,0.755,1.231,1.224,2.1,1.228l423.584,2.339c0.869,0.005,1.674-0.454,2.113-1.204c0.438-0.749,0.444-1.676,0.014-2.431
		l-28.912-50.784c-0.431-0.758-1.236-1.228-2.109-1.229l-97.265-0.159l49.637-84.187c0.443-0.751,0.45-1.681,0.019-2.439
		l-72.158-126.744c-0.431-0.758-1.235-1.227-2.106-1.229l-98.043-0.292l49.656-84.011c0.444-0.751,0.451-1.683,0.02-2.441
		L218.838,1.232c-0.43-0.755-1.229-1.224-2.098-1.229C215.872-0.001,215.066,0.456,214.627,1.206 M307.827,267.401l-27.862,47.249
		l-69.428-121.95l54.851,0.158L307.827,267.401z M232.505,341.671l-54.853-0.16l-42.436-74.538l27.861-47.252L232.505,341.671z
		 M96.568,309.632l24.543,43.11l-49.975-0.082L96.568,309.632z"/>
	<path fill="#FFE300" d="M1489.959,1.206L1275.98,365.949l-0.313,0.532c-0.44,0.75-0.446,1.68-0.017,2.437l20.717,36.39
		c0.432,0.755,1.231,1.224,2.1,1.228l423.585,2.339c0.868,0.005,1.674-0.454,2.112-1.204c0.438-0.749,0.444-1.676,0.015-2.431
		l-28.912-50.784c-0.432-0.758-1.236-1.228-2.109-1.229l-97.265-0.159l49.638-84.187c0.442-0.751,0.449-1.681,0.019-2.439
		l-72.158-126.744c-0.432-0.758-1.235-1.227-2.106-1.229l-98.043-0.292l49.656-84.011c0.444-0.751,0.451-1.683,0.02-2.441
		L1494.17,1.232c-0.43-0.755-1.229-1.224-2.098-1.229S1490.398,0.456,1489.959,1.206 M1583.158,267.401l-27.861,47.249
		l-69.429-121.95l54.852,0.158L1583.158,267.401z M1507.837,341.671l-54.853-0.16l-42.436-74.538l27.86-47.252L1507.837,341.671z
		 M1371.9,309.632l24.543,43.11l-49.975-0.082L1371.9,309.632z"/>
	<path fill="#FFE300" d="M1994.675,1.989c-0.436-0.753-1.237-1.215-2.106-1.215h-58.103c-0.872,0-1.679,0.467-2.111,1.224
		l-48.44,84.718l-48.761-85.058c-0.434-0.756-1.238-1.222-2.11-1.222h-145.846c-0.872,0-1.677,0.466-2.11,1.222l-48.604,84.789
		l-48.26-84.448c-0.432-0.758-1.239-1.225-2.111-1.225h-58.437c-0.869,0-1.672,0.463-2.106,1.215
		c-0.434,0.753-0.435,1.68-0.001,2.432l211.604,366.951c0.434,0.753,1.238,1.217,2.106,1.217h41.874c0.87,0,1.676-0.465,2.108-1.22
		l0.308-0.535L1994.676,4.419C1995.11,3.667,1995.109,2.742,1994.675,1.989 M1803.009,55.128l27.274,47.589h-140.328l27.277-47.589
		H1803.009z M1830.282,157.331l-27.278,47.59h-85.771l-27.277-47.59H1830.282z M1760.242,303.002l-24.797-43.39h49.607
		L1760.242,303.002z"/>
	<path fill="#FFE300" d="M1393.684,1899.71c-0.436-0.753-1.238-1.215-2.106-1.215h-58.103c-0.872,0-1.679,0.467-2.111,1.224
		l-48.441,84.718l-48.761-85.058c-0.433-0.756-1.238-1.222-2.11-1.222h-145.845c-0.872,0-1.677,0.466-2.111,1.222l-48.603,84.788
		l-48.26-84.447c-0.432-0.758-1.239-1.225-2.111-1.225h-58.437c-0.869,0-1.672,0.463-2.106,1.215s-0.435,1.68-0.001,2.432
		l211.603,366.951c0.435,0.753,1.238,1.217,2.107,1.217h41.874c0.87,0,1.675-0.465,2.108-1.22l0.308-0.535l211.107-366.414
		C1394.119,1901.389,1394.118,1900.462,1393.684,1899.71 M1202.018,1952.85l27.274,47.589h-140.328l27.277-47.589H1202.018z
		 M1229.291,2055.052l-27.279,47.59h-85.771l-27.278-47.59H1229.291z M1159.251,2200.724l-24.797-43.39h49.607L1159.251,2200.724z"
		/>
	<path fill="#FFE300" d="M924.579,1859.999c0.435,0.753,1.237,1.216,2.106,1.216h58.103c0.872,0,1.678-0.468,2.111-1.225
		l48.441-84.718l48.76,85.058c0.434,0.756,1.239,1.223,2.111,1.223h145.845c0.872,0,1.677-0.467,2.11-1.223l48.604-84.788
		l48.26,84.447c0.433,0.758,1.239,1.226,2.111,1.226h58.437c0.869,0,1.673-0.464,2.106-1.216s0.435-1.68,0.001-2.432
		l-211.603-366.951c-0.435-0.753-1.238-1.217-2.107-1.217h-41.874c-0.87,0-1.675,0.465-2.108,1.22l-0.308,0.535l-211.107,366.414
		C924.143,1858.32,924.144,1859.247,924.579,1859.999 M1116.245,1806.859l-27.275-47.589h140.328l-27.277,47.589H1116.245z
		 M1088.971,1704.657l27.279-47.59h85.771l27.278,47.59H1088.971z M1159.011,1558.985l24.797,43.39H1134.2L1159.011,1558.985z"/>
	<path fill="#FFE300" d="M2028.456,0.435c-0.868,0.005-1.668,0.474-2.098,1.229l-28.746,50.493c-0.432,0.758-0.424,1.69,0.02,2.441
		l49.656,84.011l-98.043,0.291c-0.872,0.003-1.676,0.472-2.106,1.229l-72.158,126.745c-0.431,0.758-0.424,1.688,0.02,2.439
		l49.637,84.187l-97.265,0.159c-0.872,0.001-1.678,0.47-2.109,1.229l-28.912,50.784c-0.43,0.755-0.424,1.682,0.014,2.431
		c0.439,0.75,1.245,1.209,2.114,1.204l423.583-2.339c0.869-0.005,1.67-0.473,2.1-1.229l20.718-36.389
		c0.431-0.756,0.425-1.686-0.018-2.436l-0.312-0.532L2030.57,1.636C2030.132,0.887,2029.325,0.429,2028.456,0.435 M1979.81,193.29
		l54.851-0.158l-69.428,121.95l-27.861-47.249L1979.81,193.29z M2082.12,220.152l27.861,47.253l-42.437,74.538l-54.854,0.16
		L2082.12,220.152z M2174.062,353.092l-49.976,0.082l24.543-43.11L2174.062,353.092z"/>
	<path fill="#FFE300" d="M758.081,0.435c-0.869,0.005-1.668,0.474-2.097,1.229l-28.747,50.493c-0.432,0.758-0.424,1.69,0.019,2.441
		l49.657,84.011L678.87,138.9c-0.872,0.003-1.676,0.472-2.107,1.229l-72.158,126.745c-0.431,0.758-0.424,1.688,0.019,2.439
		l49.637,84.187l-97.264,0.159c-0.873,0.001-1.678,0.47-2.11,1.229l-28.912,50.784c-0.43,0.755-0.424,1.682,0.014,2.431
		c0.439,0.75,1.245,1.209,2.114,1.204l423.583-2.339c0.869-0.005,1.67-0.473,2.1-1.229l20.717-36.389
		c0.431-0.756,0.425-1.686-0.017-2.436l-0.313-0.532L760.195,1.636C759.756,0.887,758.95,0.429,758.081,0.435 M709.434,193.29
		l54.851-0.158l-69.428,121.95l-27.861-47.249L709.434,193.29z M811.745,220.152l27.861,47.253l-42.436,74.538l-54.854,0.16
		L811.745,220.152z M903.686,353.092l-49.976,0.082l24.544-43.11L903.686,353.092z"/>
	<path fill="#FFE300" d="M2028.428,851.129c0.868,0.004,1.673-0.457,2.109-1.207l29.266-50.195c0.439-0.753,0.441-1.685,0.006-2.44
		l-48.789-84.518l98.04,0.717c0.872,0.007,1.681-0.454,2.118-1.207l73.459-125.995c0.439-0.753,0.442-1.683,0.008-2.439
		l-48.769-84.693l97.261,0.842c0.873,0.008,1.683-0.453,2.123-1.207l29.433-50.483c0.438-0.751,0.44-1.678,0.011-2.431
		c-0.431-0.755-1.232-1.222-2.101-1.226l-423.585-2.021c-0.869-0.005-1.676,0.456-2.113,1.207l-21.09,36.174
		c-0.439,0.752-0.442,1.681-0.008,2.436l0.307,0.535l210.213,366.928C2026.758,850.661,2027.559,851.126,2028.428,851.129
		 M2079.057,658.786l-54.85-0.407l70.68-121.228l27.373,47.533L2079.057,658.786z M1977.028,630.872l-27.373-47.537l43.201-74.097
		l54.852,0.405L1977.028,630.872z M1886.46,496.993l49.975,0.433l-24.986,42.855L1886.46,496.993z"/>
	<path fill="#FFE300" d="M1782.057,498.405c-0.869-0.004-1.673,0.457-2.109,1.207l-29.266,50.195
		c-0.439,0.753-0.441,1.685-0.006,2.44l48.789,84.518l-98.04-0.717c-0.872-0.007-1.681,0.454-2.12,1.207l-73.458,125.995
		c-0.438,0.753-0.442,1.683-0.007,2.439l48.768,84.693l-97.261-0.842c-0.872-0.008-1.682,0.453-2.122,1.207l-29.433,50.483
		c-0.438,0.751-0.441,1.678-0.011,2.431c0.431,0.755,1.231,1.222,2.101,1.226l423.585,2.021c0.869,0.004,1.675-0.456,2.113-1.207
		l21.09-36.174c0.438-0.752,0.441-1.681,0.008-2.436l-0.307-0.535l-210.213-366.928
		C1783.727,498.874,1782.926,498.408,1782.057,498.405 M1731.427,690.749l54.85,0.407l-70.679,121.228l-27.374-47.533
		L1731.427,690.749z M1833.456,718.663l27.373,47.536l-43.201,74.098l-54.853-0.405L1833.456,718.663z M1924.023,852.542
		l-49.974-0.433l24.986-42.854L1924.023,852.542z"/>
	<path fill="#FFE300" d="M1709.561,1349.962c0.869,0.004,1.673-0.457,2.109-1.207l29.266-50.194
		c0.439-0.753,0.441-1.686,0.006-2.441l-48.789-84.517l98.04,0.717c0.872,0.007,1.681-0.454,2.12-1.207l73.458-125.995
		c0.438-0.753,0.441-1.683,0.007-2.439l-48.769-84.693l97.262,0.842c0.872,0.008,1.682-0.453,2.122-1.207l29.433-50.483
		c0.438-0.751,0.441-1.678,0.011-2.431c-0.431-0.755-1.231-1.222-2.101-1.226l-423.585-2.021c-0.869-0.005-1.675,0.456-2.113,1.207
		l-21.09,36.174c-0.439,0.752-0.442,1.681-0.008,2.436l0.307,0.535l210.213,366.928
		C1707.891,1349.494,1708.691,1349.959,1709.561,1349.962 M1760.19,1157.619l-54.851-0.407l70.681-121.228l27.373,47.533
		L1760.19,1157.619z M1658.161,1129.705l-27.373-47.537l43.201-74.097l54.852,0.405L1658.161,1129.705z M1567.594,995.826
		l49.974,0.433l-24.986,42.855L1567.594,995.826z"/>
	<path fill="#FFE300" d="M1463.189,997.238c-0.869-0.004-1.673,0.457-2.109,1.207l-29.266,50.195
		c-0.439,0.753-0.441,1.686-0.006,2.44l48.789,84.518l-98.04-0.717c-0.872-0.007-1.681,0.454-2.119,1.207l-73.459,125.995
		c-0.438,0.753-0.441,1.683-0.007,2.438l48.768,84.693l-97.261-0.842c-0.872-0.008-1.682,0.453-2.122,1.207l-29.433,50.482
		c-0.438,0.751-0.441,1.679-0.011,2.432c0.431,0.755,1.231,1.222,2.101,1.226l423.585,2.021c0.869,0.005,1.675-0.456,2.113-1.207
		l21.09-36.174c0.439-0.752,0.441-1.682,0.008-2.437l-0.307-0.535l-210.213-366.928
		C1464.859,997.708,1464.059,997.242,1463.189,997.238 M1412.56,1189.583l54.851,0.407l-70.68,121.228l-27.374-47.533
		L1412.56,1189.583z M1514.589,1217.497l27.373,47.537l-43.201,74.097l-54.853-0.405L1514.589,1217.497z M1605.156,1351.375
		l-49.974-0.433l24.986-42.855L1605.156,1351.375z"/>
	<path fill="#FFE300" d="M2028.428,851.129c0.868,0.004,1.673-0.457,2.109-1.207l29.266-50.195c0.439-0.753,0.441-1.685,0.006-2.44
		l-48.789-84.518l98.04,0.717c0.872,0.007,1.681-0.454,2.118-1.207l73.459-125.995c0.439-0.753,0.442-1.683,0.008-2.439
		l-48.769-84.693l97.261,0.842c0.873,0.008,1.683-0.453,2.123-1.207l29.433-50.483c0.438-0.751,0.44-1.678,0.011-2.431
		c-0.431-0.755-1.232-1.222-2.101-1.226l-423.585-2.021c-0.869-0.005-1.676,0.456-2.113,1.207l-21.09,36.174
		c-0.439,0.752-0.442,1.681-0.008,2.436l0.307,0.535l210.213,366.928C2026.758,850.661,2027.559,851.126,2028.428,851.129
		 M2079.057,658.786l-54.85-0.407l70.68-121.228l27.373,47.533L2079.057,658.786z M1977.028,630.872l-27.373-47.537l43.201-74.097
		l54.852,0.405L1977.028,630.872z M1886.46,496.993l49.975,0.433l-24.986,42.855L1886.46,496.993z"/>
	<path fill="#FFE300" d="M1782.057,498.405c-0.869-0.004-1.673,0.457-2.109,1.207l-29.266,50.195
		c-0.439,0.753-0.441,1.685-0.006,2.44l48.789,84.518l-98.04-0.717c-0.872-0.007-1.681,0.454-2.12,1.207l-73.458,125.995
		c-0.438,0.753-0.442,1.683-0.007,2.439l48.768,84.693l-97.261-0.842c-0.872-0.008-1.682,0.453-2.122,1.207l-29.433,50.483
		c-0.438,0.751-0.441,1.678-0.011,2.431c0.431,0.755,1.231,1.222,2.101,1.226l423.585,2.021c0.869,0.004,1.675-0.456,2.113-1.207
		l21.09-36.174c0.438-0.752,0.441-1.681,0.008-2.436l-0.307-0.535l-210.213-366.928
		C1783.727,498.874,1782.926,498.408,1782.057,498.405 M1731.427,690.749l54.85,0.407l-70.679,121.228l-27.374-47.533
		L1731.427,690.749z M1833.456,718.663l27.373,47.536l-43.201,74.098l-54.853-0.405L1833.456,718.663z M1924.023,852.542
		l-49.974-0.433l24.986-42.854L1924.023,852.542z"/>
	<path fill="#FFE300" d="M1709.561,1349.962c0.869,0.004,1.673-0.457,2.109-1.207l29.266-50.194
		c0.439-0.753,0.441-1.686,0.006-2.441l-48.789-84.517l98.04,0.717c0.872,0.007,1.681-0.454,2.12-1.207l73.458-125.995
		c0.438-0.753,0.441-1.683,0.007-2.439l-48.769-84.693l97.262,0.842c0.872,0.008,1.682-0.453,2.122-1.207l29.433-50.483
		c0.438-0.751,0.441-1.678,0.011-2.431c-0.431-0.755-1.231-1.222-2.101-1.226l-423.585-2.021c-0.869-0.005-1.675,0.456-2.113,1.207
		l-21.09,36.174c-0.439,0.752-0.442,1.681-0.008,2.436l0.307,0.535l210.213,366.928
		C1707.891,1349.494,1708.691,1349.959,1709.561,1349.962 M1760.19,1157.619l-54.851-0.407l70.681-121.228l27.373,47.533
		L1760.19,1157.619z M1658.161,1129.705l-27.373-47.537l43.201-74.097l54.852,0.405L1658.161,1129.705z M1567.594,995.826
		l49.974,0.433l-24.986,42.855L1567.594,995.826z"/>
	<path fill="#FFE300" d="M1420.196,1842.083c0.869,0.004,1.673-0.457,2.109-1.207l29.266-50.195
		c0.439-0.753,0.441-1.685,0.006-2.439l-48.789-84.519l98.04,0.717c0.872,0.008,1.681-0.454,2.119-1.207l73.459-125.994
		c0.438-0.754,0.441-1.684,0.007-2.439l-48.769-84.693l97.262,0.842c0.872,0.009,1.682-0.452,2.122-1.206l29.433-50.483
		c0.438-0.751,0.441-1.678,0.011-2.431c-0.431-0.755-1.231-1.223-2.101-1.227l-423.585-2.021c-0.869-0.005-1.675,0.456-2.113,1.207
		l-21.09,36.174c-0.438,0.752-0.442,1.681-0.008,2.436l0.307,0.535l210.213,366.928
		C1418.526,1841.613,1419.327,1842.08,1420.196,1842.083 M1470.826,1649.738l-54.85-0.406l70.679-121.229l27.374,47.533
		L1470.826,1649.738z M1368.797,1621.825l-27.373-47.537l43.201-74.098l54.852,0.405L1368.797,1621.825z M1278.229,1487.945
		l49.974,0.434l-24.986,42.854L1278.229,1487.945z"/>
	<path fill="#FFE300" d="M1463.189,997.238c-0.869-0.004-1.673,0.457-2.109,1.207l-29.266,50.195
		c-0.439,0.753-0.441,1.686-0.006,2.44l48.789,84.518l-98.04-0.717c-0.872-0.007-1.681,0.454-2.119,1.207l-73.459,125.995
		c-0.438,0.753-0.441,1.683-0.007,2.438l48.768,84.693l-97.261-0.842c-0.872-0.008-1.682,0.453-2.122,1.207l-29.433,50.482
		c-0.438,0.751-0.441,1.679-0.011,2.432c0.431,0.755,1.231,1.222,2.101,1.226l423.585,2.021c0.869,0.005,1.675-0.456,2.113-1.207
		l21.09-36.174c0.439-0.752,0.441-1.682,0.008-2.437l-0.307-0.535l-210.213-366.928
		C1464.859,997.708,1464.059,997.242,1463.189,997.238 M1412.56,1189.583l54.851,0.407l-70.68,121.228l-27.374-47.533
		L1412.56,1189.583z M1514.589,1217.497l27.373,47.537l-43.201,74.097l-54.853-0.405L1514.589,1217.497z M1605.156,1351.375
		l-49.974-0.433l24.986-42.855L1605.156,1351.375z"/>
	<path fill="#FFE300" d="M269.374,849.475l210.213-366.927l0.307-0.536c0.434-0.754,0.431-1.684-0.008-2.436l-21.09-36.174
		c-0.438-0.751-1.244-1.211-2.113-1.207l-423.585,2.021c-0.869,0.004-1.669,0.472-2.101,1.226c-0.43,0.754-0.426,1.681,0.011,2.431
		l29.433,50.483c0.44,0.754,1.25,1.215,2.123,1.207l97.26-0.842l-48.767,84.694c-0.435,0.755-0.433,1.685,0.006,2.438
		l73.459,125.996c0.439,0.752,1.247,1.213,2.119,1.207l98.04-0.718l-48.788,84.518c-0.436,0.756-0.434,1.687,0.005,2.44
		l29.265,50.195c0.437,0.751,1.241,1.211,2.11,1.207C268.142,850.695,268.942,850.229,269.374,849.475 M173.439,584.252
		l27.374-47.534l70.679,121.229l-54.85,0.406L173.439,584.252z M247.992,509.21l54.852-0.405l43.201,74.098l-27.373,47.536
		L247.992,509.21z M384.251,539.849l-24.986-42.855l49.974-0.433L384.251,539.849z"/>
	<path fill="#FFE300" d="M511.542,499.197L301.33,866.124l-0.307,0.536c-0.434,0.754-0.431,1.685,0.008,2.437l21.09,36.174
		c0.438,0.751,1.244,1.211,2.113,1.207l423.585-2.021c0.869-0.004,1.669-0.472,2.101-1.226c0.43-0.754,0.426-1.681-0.011-2.431
		l-29.433-50.483c-0.44-0.754-1.25-1.215-2.123-1.207l-97.26,0.842l48.767-84.694c0.435-0.755,0.433-1.685-0.006-2.438
		l-73.459-125.996c-0.439-0.752-1.247-1.213-2.119-1.207l-98.04,0.718l48.788-84.518c0.436-0.756,0.434-1.687-0.005-2.44
		l-29.265-50.195c-0.437-0.751-1.241-1.211-2.11-1.207C512.774,497.977,511.974,498.443,511.542,499.197 M607.477,764.419
		l-27.374,47.534l-70.679-121.229l54.85-0.406L607.477,764.419z M532.925,839.461l-54.852,0.405l-43.201-74.098l27.373-47.536
		L532.925,839.461z M396.665,808.823l24.986,42.855l-49.974,0.433L396.665,808.823z"/>
	<path fill="#FFE300" d="M588.241,1348.308l210.213-366.927l0.308-0.536c0.433-0.754,0.43-1.684-0.008-2.436l-21.091-36.174
		c-0.438-0.751-1.244-1.211-2.113-1.207l-423.585,2.021c-0.869,0.004-1.669,0.472-2.101,1.226c-0.43,0.754-0.426,1.681,0.011,2.431
		l29.433,50.483c0.44,0.754,1.25,1.215,2.123,1.207l97.26-0.842l-48.767,84.694c-0.435,0.755-0.433,1.686,0.006,2.438
		l73.459,125.996c0.439,0.752,1.247,1.213,2.119,1.207l98.04-0.719l-48.788,84.519c-0.436,0.756-0.434,1.687,0.005,2.439
		l29.265,50.195c0.437,0.751,1.241,1.211,2.11,1.207C587.009,1349.528,587.81,1349.062,588.241,1348.308 M492.307,1083.086
		l27.374-47.534l70.679,121.229l-54.849,0.406L492.307,1083.086z M566.859,1008.044l54.852-0.405l43.201,74.098l-27.373,47.536
		L566.859,1008.044z M703.119,1038.682l-24.986-42.855l49.974-0.433L703.119,1038.682z"/>
	<path fill="#FFE300" d="M888.722,1840.859l210.213-366.927l0.308-0.536c0.433-0.754,0.43-1.684-0.008-2.436l-21.091-36.175
		c-0.438-0.751-1.244-1.211-2.113-1.207l-423.585,2.021c-0.869,0.004-1.669,0.472-2.101,1.226c-0.43,0.754-0.426,1.682,0.011,2.432
		l29.433,50.482c0.44,0.754,1.25,1.215,2.123,1.207l97.26-0.842l-48.767,84.693c-0.435,0.756-0.433,1.686,0.006,2.438
		l73.459,125.995c0.439,0.753,1.247,1.214,2.119,1.207l98.04-0.717l-48.788,84.518c-0.436,0.755-0.434,1.688,0.005,2.44
		l29.265,50.194c0.437,0.752,1.241,1.212,2.11,1.207C887.489,1842.079,888.291,1841.613,888.722,1840.859 M792.788,1575.637
		l27.374-47.534l70.679,121.228l-54.849,0.407L792.788,1575.637z M867.339,1500.595l54.852-0.405l43.201,74.098l-27.373,47.536
		L867.339,1500.595z M1003.6,1531.233l-24.986-42.854l49.974-0.434L1003.6,1531.233z"/>
	<path fill="#FFE300" d="M830.41,998.03l-210.213,366.927l-0.308,0.535c-0.433,0.755-0.43,1.685,0.008,2.437l21.091,36.174
		c0.438,0.751,1.244,1.211,2.113,1.207l423.585-2.021c0.869-0.005,1.669-0.473,2.101-1.227c0.43-0.754,0.426-1.681-0.011-2.431
		l-29.433-50.483c-0.44-0.754-1.25-1.215-2.123-1.207l-97.26,0.842l48.767-84.692c0.435-0.756,0.433-1.687-0.006-2.439
		l-73.459-125.995c-0.439-0.752-1.247-1.214-2.119-1.207l-98.04,0.717l48.788-84.518c0.436-0.756,0.434-1.687-0.005-2.44
		l-29.265-50.195c-0.437-0.751-1.241-1.211-2.11-1.207C831.642,996.81,830.841,997.276,830.41,998.03 M926.344,1263.252
		l-27.374,47.533l-70.679-121.228l54.849-0.407L926.344,1263.252z M851.792,1338.294l-54.852,0.404l-43.201-74.098l27.373-47.536
		L851.792,1338.294z M715.532,1307.656l24.986,42.855l-49.974,0.433L715.532,1307.656z"/>
</g>
</svg>
