<?xml version="1.0" encoding="utf-8"?>
<!-- Generator: Adobe Illustrator 15.0.0, SVG Export Plug-In . SVG Version: 6.00 Build 0)  -->
<!DOCTYPE svg PUBLIC "-//W3C//DTD SVG 1.1//EN" "http://www.w3.org/Graphics/SVG/1.1/DTD/svg11.dtd">
<svg version="1.1" id="Layer_1" xmlns="http://www.w3.org/2000/svg" xmlns:xlink="http://www.w3.org/1999/xlink" x="0px" y="0px"
	 width="171.156px" height="189.61px" viewBox="0 0 171.156 189.61" enable-background="new 0 0 171.156 189.61"
	 xml:space="preserve">
<path fill="#3FB8EA" d="M170.958,47.612L143.878,0.37C143.748,0.141,143.503,0,143.24,0H89.056c-0.264,0-0.508,0.141-0.639,0.37
	l-27.08,47.242c-0.13,0.226-0.13,0.504,0,0.73l27.08,47.242c0.131,0.227,0.375,0.371,0.639,0.371h54.184
	c0.264,0,0.508-0.145,0.639-0.371l27.08-47.242C171.089,48.116,171.089,47.837,170.958,47.612 M127,21.342
	c4.115,0,7.467,3.351,7.467,7.467c0,4.117-3.352,7.466-7.467,7.466c-4.117,0-7.467-3.349-7.467-7.466
	C119.533,24.692,122.882,21.342,127,21.342 M131.421,74.647h-30.548L85.587,47.976l15.287-26.671h3.048
	c-0.771,2.364-1.188,4.886-1.188,7.504c0,13.38,10.884,24.266,24.267,24.266c7.145,0,13.58-3.104,18.023-8.037l1.686,2.938
	L131.421,74.647z"/>
<path fill="#231F20" d="M16.675,150.547c-4.584,0-8.794-1.668-11.853-4.698C1.713,142.769,0,138.47,0,133.738
	c0-4.709,1.71-8.998,4.815-12.08c3.076-3.052,7.32-4.734,11.95-4.734c4.007,0,7.458,1.017,10.256,3.023
	c0.081,0.06,0.13,0.155,0.13,0.256v3.736c0,0.119-0.066,0.225-0.172,0.282c-0.104,0.053-0.232,0.042-0.329-0.027
	c-2.855-2.078-6.195-3.175-9.657-3.175c-7.291,0-12.582,5.367-12.582,12.763c0,3.614,1.277,6.879,3.598,9.192
	c2.25,2.246,5.327,3.479,8.665,3.479c3.477,0,6.481-1.066,8.479-3.006v-12.082c0-0.173,0.141-0.314,0.315-0.314h3.646
	c0.174,0,0.315,0.142,0.315,0.314v13.673c0,0.074-0.028,0.146-0.077,0.205C26.5,148.564,21.76,150.547,16.675,150.547
	 M61.607,150.001c-0.125,0-0.236-0.074-0.287-0.186l-3.791-8.428H41.533l-3.699,8.425c-0.05,0.114-0.164,0.188-0.289,0.188h-3.874
	c-0.106,0-0.206-0.052-0.263-0.142c-0.059-0.088-0.068-0.203-0.025-0.299l14.173-32.082c0.051-0.114,0.164-0.189,0.287-0.189h3.51
	c0.124,0,0.237,0.075,0.287,0.189l14.173,32.082c0.042,0.096,0.033,0.211-0.025,0.299c-0.058,0.09-0.157,0.142-0.264,0.142H61.607
	 M49.577,123.023l-6.487,14.455h12.972L49.577,123.023z M70.904,150.001h22.693c0.174,0,0.315-0.14,0.315-0.316v-3.372
	c0-0.172-0.142-0.312-0.315-0.312H74.909v-11.401h14.678c0.174,0,0.314-0.14,0.314-0.316v-3.372c0-0.172-0.141-0.312-0.314-0.312
	H74.909v-9.122h18.005c0.175,0,0.313-0.142,0.313-0.314v-3.374c0-0.174-0.139-0.314-0.313-0.314H70.904
	c-0.174,0-0.315,0.141-0.315,0.314v31.897C70.589,149.861,70.73,150.001,70.904,150.001 M14.881,170.009
	c-0.539-0.163-1.075-0.316-1.599-0.467c-3.921-1.117-7.018-2.003-7.018-5.021c0-1.091,0.516-4.651,7.159-4.651
	c4.443,0,7.998,1.826,9.72,2.914c0.097,0.062,0.22,0.063,0.319,0.008c0.101-0.053,0.164-0.159,0.164-0.274v-3.783
	c0-0.106-0.057-0.207-0.148-0.267c-2.817-1.762-6.325-2.69-10.147-2.69c-3.49,0-6.415,0.853-8.459,2.459
	c-1.976,1.555-3.021,3.696-3.021,6.195c0,6.274,5.515,7.827,10.847,9.326c5.472,1.551,8.566,2.599,8.566,6.121
	c0,3.75-4.053,5.429-8.07,5.429c-4.612,0-9.231-1.977-11.41-3.931c-0.093-0.082-0.226-0.104-0.339-0.052
	c-0.113,0.049-0.187,0.162-0.187,0.286v4.101c0,0.102,0.048,0.197,0.131,0.257c2.987,2.148,7.485,3.432,12.033,3.432
	c3.333,0,6.373-0.861,8.562-2.43c2.417-1.727,3.692-4.195,3.692-7.137C25.677,173.257,19.437,171.379,14.881,170.009
	 M54.236,156.322H28.625c-0.172,0-0.313,0.141-0.313,0.317v3.371c0,0.173,0.141,0.314,0.313,0.314h10.577v28.213
	c0,0.173,0.141,0.313,0.315,0.313h3.736c0.174,0,0.315-0.141,0.315-0.313v-28.213h10.667c0.174,0,0.315-0.142,0.315-0.314v-3.371
	C54.552,156.463,54.411,156.322,54.236,156.322 M86.054,156.533h-3.691c-0.174,0-0.315,0.141-0.315,0.316v18.409
	c0,6.424-3.408,10.256-9.117,10.256c-5.682,0-9.073-3.832-9.073-10.256V156.85c0-0.176-0.142-0.316-0.314-0.316h-3.692
	c-0.173,0-0.314,0.141-0.314,0.316v18.318c0,8.907,5.131,14.442,13.394,14.442c8.289,0,13.438-5.535,13.438-14.442V156.85
	C86.37,156.674,86.228,156.533,86.054,156.533 M116.314,160.827c3.215,2.957,4.914,7.022,4.914,11.76s-1.699,8.806-4.914,11.762
	c-3.203,2.946-7.6,4.503-12.717,4.503H93.025c-0.174,0-0.315-0.141-0.315-0.313V156.64c0-0.177,0.142-0.317,0.315-0.317h10.572
	C108.714,156.322,113.111,157.882,116.314,160.827 M97.031,184.85h6.156c8.406,0,13.629-4.697,13.629-12.263
	c0-7.562-5.223-12.262-13.629-12.262h-6.156V184.85z M131.24,156.322h-3.691c-0.174,0-0.314,0.141-0.314,0.317v31.898
	c0,0.173,0.141,0.313,0.314,0.313h3.691c0.176,0,0.314-0.141,0.314-0.313V156.64C131.554,156.463,131.416,156.322,131.24,156.322
	 M154.708,155.776c9.377,0,16.447,7.228,16.447,16.811c0,9.586-7.07,16.812-16.447,16.812c-9.35,0-16.4-7.227-16.4-16.812
	C138.308,163.004,145.359,155.776,154.708,155.776 M154.708,185.307c6.861,0,12.035-5.468,12.035-12.72
	c0-7.248-5.174-12.718-12.035-12.718c-3.26,0-6.281,1.285-8.504,3.616c-2.248,2.358-3.484,5.589-3.484,9.102
	s1.236,6.746,3.484,9.101C148.427,184.021,151.449,185.307,154.708,185.307"/>
</svg>
