<?xml version="1.0" encoding="utf-8"?>
<!-- Generator: Adobe Illustrator 15.0.0, SVG Export Plug-In . SVG Version: 6.00 Build 0)  -->
<!DOCTYPE svg PUBLIC "-//W3C//DTD SVG 1.1//EN" "http://www.w3.org/Graphics/SVG/1.1/DTD/svg11.dtd">
<svg version="1.1" id="Layer_1" xmlns="http://www.w3.org/2000/svg" xmlns:xlink="http://www.w3.org/1999/xlink" x="0px" y="0px"
	 width="131.168px" height="150.43px" viewBox="0 0 131.168 150.43" enable-background="new 0 0 131.168 150.43"
	 xml:space="preserve">
<path fill="#F69321" d="M120.39,47.606L93.31,0.37C93.18,0.141,92.936,0,92.674,0H38.493c-0.263,0-0.507,0.141-0.638,0.37
	L10.777,47.606c-0.13,0.227-0.13,0.505,0,0.731l27.078,47.237c0.131,0.229,0.375,0.37,0.638,0.37h54.181
	c0.262,0,0.506-0.142,0.636-0.37l27.08-47.237C120.52,48.111,120.52,47.833,120.39,47.606 M59.238,74.642l6.346-11.078l6.346,11.078
	H59.238z M83.653,69.76L65.584,38.215l-18.07,31.546L35.025,47.973l15.286-26.669h30.544L96.14,47.973L83.653,69.76z"/>
<path fill="#231F20" d="M29.008,131.145c0.116,0,0.21,0.095,0.21,0.211v13.67c0,0.05-0.018,0.098-0.05,0.137
	c-2.835,3.299-7.544,5.268-12.599,5.268c-4.555,0-8.739-1.658-11.778-4.669C1.701,142.702,0,138.429,0,133.725
	c0-4.68,1.699-8.94,4.784-12.001c3.056-3.033,7.274-4.704,11.875-4.704c4.042,0,7.375,0.981,10.193,3.001
	c0.055,0.04,0.087,0.104,0.087,0.171v3.736c0,0.079-0.044,0.151-0.115,0.187c-0.07,0.036-0.155,0.03-0.219-0.017
	c-2.874-2.09-6.234-3.195-9.719-3.195c-7.35,0-12.685,5.411-12.685,12.868c0,3.641,1.29,6.932,3.63,9.267
	c2.269,2.264,5.372,3.51,8.737,3.51c3.522,0,6.566-1.089,8.584-3.068v-12.123c0-0.116,0.094-0.211,0.21-0.211H29.008
	 M75.248,117.567h-4.009c-0.091,0-0.172,0.058-0.199,0.144l-8.363,25.442l-8.005-25.576c-0.028-0.088-0.109-0.146-0.2-0.146h-2.962
	c-0.092,0-0.174,0.059-0.2,0.146l-7.963,25.577l-8.452-25.444c-0.028-0.086-0.109-0.143-0.2-0.143h-4.101
	c-0.067,0-0.131,0.032-0.17,0.087c-0.04,0.056-0.049,0.126-0.028,0.19l10.981,32.078c0.029,0.085,0.108,0.142,0.199,0.142h3.281
	c0.091,0,0.172-0.059,0.2-0.146l7.91-25.196l7.866,25.195c0.027,0.089,0.107,0.147,0.198,0.147h3.283
	c0.089,0,0.169-0.057,0.197-0.142l10.936-32.078c0.023-0.064,0.012-0.135-0.027-0.19C75.38,117.599,75.317,117.567,75.248,117.567
	 M103.444,117.567H77.837c-0.116,0-0.211,0.093-0.211,0.209v3.372c0,0.116,0.095,0.211,0.211,0.211h10.68v28.312
	c0,0.116,0.095,0.211,0.211,0.211h3.735c0.116,0,0.211-0.095,0.211-0.211v-28.312h10.771c0.118,0,0.211-0.095,0.211-0.211v-3.372
	C103.655,117.66,103.562,117.567,103.444,117.567 M120.659,117.566c6.384,0,10.509,3.588,10.509,9.142
	c0,2.729-0.954,5.042-2.758,6.688c-1.855,1.694-4.536,2.589-7.751,2.589h-9.54v13.688c0,0.116-0.095,0.211-0.211,0.211h-3.69
	c-0.116,0-0.211-0.095-0.211-0.211v-31.896c0-0.116,0.095-0.21,0.211-0.21H120.659 M111.119,132.193h9.267
	c4.303,0,6.671-1.916,6.671-5.395c0-3.509-2.368-5.44-6.671-5.44h-9.267V132.193z"/>
</svg>
